<?xml version="1.0" encoding="UTF-8"?>
<svg width="32" height="32" viewBox="0 0 32 32" xmlns="http://www.w3.org/2000/svg">
  <defs>
    <linearGradient id="bgGradient" x1="0%" y1="0%" x2="100%" y2="100%">
      <stop offset="0%" style="stop-color:#6366f1;stop-opacity:1" />
      <stop offset="100%" style="stop-color:#8b5cf6;stop-opacity:1" />
    </linearGradient>
    <linearGradient id="accentGradient" x1="0%" y1="0%" x2="100%" y2="100%">
      <stop offset="0%" style="stop-color:#22d3ee;stop-opacity:1" />
      <stop offset="100%" style="stop-color:#06b6d4;stop-opacity:1" />
    </linearGradient>
  </defs>

  <!-- Background circle -->
  <circle cx="16" cy="16" r="12.8" fill="url(#bgGradient)"/>

  <!-- AI symbol - stylized circuit/brain pattern -->
  <g fill="white" transform="translate(3.2, 3.2)">
    <!-- Center node -->
    <circle cx="12.8" cy="12.8" r="2.048" fill="url(#accentGradient)"/>

    <!-- Connection lines -->
    <line x1="6.4" y1="6.4" x2="12.8" y2="12.8" stroke="white" stroke-width="0.64" stroke-linecap="round" opacity="0.9"/>
    <line x1="19.200000000000003" y1="6.4" x2="12.8" y2="12.8" stroke="white" stroke-width="0.64" stroke-linecap="round" opacity="0.9"/>
    <line x1="6.4" y1="19.200000000000003" x2="12.8" y2="12.8" stroke="white" stroke-width="0.64" stroke-linecap="round" opacity="0.9"/>
    <line x1="19.200000000000003" y1="19.200000000000003" x2="12.8" y2="12.8" stroke="white" stroke-width="0.64" stroke-linecap="round" opacity="0.9"/>

    <!-- Corner nodes -->
    <circle cx="6.4" cy="6.4" r="1.536" fill="white"/>
    <circle cx="19.200000000000003" cy="6.4" r="1.536" fill="white"/>
    <circle cx="6.4" cy="19.200000000000003" r="1.536" fill="white"/>
    <circle cx="19.200000000000003" cy="19.200000000000003" r="1.536" fill="white"/>

    <!-- Side nodes -->
    <circle cx="12.8" cy="3.84" r="1.152" fill="url(#accentGradient)"/>
    <circle cx="12.8" cy="21.76" r="1.152" fill="url(#accentGradient)"/>
    <circle cx="3.84" cy="12.8" r="1.152" fill="url(#accentGradient)"/>
    <circle cx="21.76" cy="12.8" r="1.152" fill="url(#accentGradient)"/>

    <!-- Additional connection lines to side nodes -->
    <line x1="12.8" y1="3.84" x2="12.8" y2="10.752" stroke="white" stroke-width="0.48" stroke-linecap="round" opacity="0.7"/>
    <line x1="12.8" y1="21.76" x2="12.8" y2="14.847999999999999" stroke="white" stroke-width="0.48" stroke-linecap="round" opacity="0.7"/>
    <line x1="3.84" y1="12.8" x2="10.752" y2="12.8" stroke="white" stroke-width="0.48" stroke-linecap="round" opacity="0.7"/>
    <line x1="21.76" y1="12.8" x2="14.847999999999999" y2="12.8" stroke="white" stroke-width="0.48" stroke-linecap="round" opacity="0.7"/>
  </g>
</svg>